<svg xmlns="http://www.w3.org/2000/svg" viewBox="0 0 137.03 155.71"><g style="isolation:isolate"><g><path d="M77.62 0v10.82L59.42.44 0 34.12l7.77 4.61L0 43.15V113l8.12-4.82V122l59.42 33.68V150l10.07 5.72L137 121.41l-8-4.62 8-4.75V34.12zm20.16 65.46v33.29l-30.24 17.33v-5.69L35.46 92l3.79-2.25V57.41l38.37-21.93v10.29l27.45 15.56z" fill="#fff"/><path fill="#f12b93" style="mix-blend-mode:multiply" d="M59.42.44L0 34.12l39.25 23.29 59.96-34.27L59.42.44z"/><path fill="#f0429e" style="mix-blend-mode:multiply" d="M0 43.15v69.86l39.25-23.29V20.83L0 43.15z"/><path fill="#2a429b" style="mix-blend-mode:multiply" d="M97.78 65.46v69.87l39.25-23.29V43.15L97.78 65.46z"/><path fill="#6c1586" style="mix-blend-mode:multiply" d="M8.12 76.27v45.76l59.42 33.68v-45.32L8.12 76.27z"/><path fill="#58bfd9" style="mix-blend-mode:multiply" d="M77.62 0v45.77l59.41 33.67V34.12L77.62 0z"/><path fill="#8d59a8" style="mix-blend-mode:multiply" d="M97.78 98.75l-59.96 34.37 39.8 22.59 59.41-34.3-39.25-22.66z"/></g></g></svg>